<svg width="64" height="64" xmlns="http://www.w3.org/2000/svg">

 <g>
  <title>background</title>
  <rect fill="none" id="canvas_background" height="402" width="582" y="-1" x="-1"/>
 </g>
 <g>
  <title>Layer 1</title>
  <path id="svg_1" fill="#003300" d="m46.1,17.348c-0.025,-0.019 -0.045,-0.037 -0.08,-0.057c-1.043,-0.598 -1.004,-1.7 -1.004,-1.7l0,-8.489c0,-1.04 0.654,-1.011 0.654,-1.011l-0.008,-0.019c0.586,-0.073 0.771,-0.482 0.812,-0.807l0,-3.736c0,-1.265 -0.951,-1.469 -1.4,-1.495l-6.43,0c-1.221,0 -1.373,1.005 -1.387,1.41l0,3.291c0,1.061 0.607,1.298 0.926,1.35l0,0.001l0.002,0c0.051,0.008 0.092,0.014 0.125,0.015c0.18,0.043 0.498,0.226 0.498,1.001l0,8.846c-0.041,0.366 -0.221,0.919 -0.879,1.285c-0.039,0.021 -0.051,0.041 -0.084,0.062c-3.098,1.507 -5.242,4.667 -5.242,8.343l0,0.124l-18.613,0c-0.994,0 -1.193,0.485 -1.212,0.829c0.52,4.963 5.643,8.938 12.134,9.466l0,21.833c-0.003,0.265 -0.06,1.163 -0.672,1.782l-3.281,3.297c-0.254,0.279 -0.625,0.796 0.171,0.796l10.482,0c0.776,0 0.425,-0.494 0.174,-0.769l-0.171,-0.174l-0.002,-0.003l-3.021,-3.057l0,0c-0.655,-0.663 -0.771,-1.426 -0.788,-1.771l0,-21.932c1.717,-0.136 3.331,-0.52 4.801,-1.092l0,2.7l0,3.88l0,20.735c0.008,0.371 0.163,1.684 1.987,1.684l14.173,0c2.121,0 2.426,-1.371 2.459,-1.979l0,-36.35c-0.001,-3.629 -2.091,-6.759 -5.124,-8.289zm-19.724,16.908c-4.209,0 -7.673,-2.404 -8.151,-5.499c-0.117,-0.741 0.763,-0.731 0.763,-0.731l14.81,0c0.185,0.004 0.746,0.067 0.751,0.629c-0.416,3.144 -3.919,5.601 -8.173,5.601zm21.944,23.989c0,1.796 -1.279,2.125 -1.986,2.172l-8.729,0c-1.826,0 -2.103,-1.404 -2.136,-2.048l0,-24.897c2.423,-1.65 4.077,-3.941 4.466,-6.528c0.18,-1.066 -0.861,-1.179 -1.197,-1.183l-3.216,0c0.269,-3.303 3.001,-5.905 6.372,-5.905c3.549,0 6.426,2.876 6.426,6.426l0,31.963z"/>
 </g>
</svg>